<svg xmlns="http://www.w3.org/2000/svg" viewBox="0 0 420 500">
  <defs>
    <linearGradient id="bg2" x1="0" y1="0" x2="1" y2="1">
      <stop offset="0" stop-color="#f5fbff"/>
      <stop offset="1" stop-color="#d7e8ee"/>
    </linearGradient>
    <linearGradient id="bottle" x1="0" y1="0" x2="1" y2="1">
      <stop offset="0" stop-color="#b8e5e8"/>
      <stop offset=".48" stop-color="#64b8c3"/>
      <stop offset="1" stop-color="#2b8294"/>
    </linearGradient>
    <filter id="shadow2" x="-50%" y="-50%" width="200%" height="200%">
      <feGaussianBlur stdDeviation="12"/>
    </filter>
  </defs>
  <rect width="420" height="500" fill="url(#bg2)"/>
  <path d="M0 385c89-50 151-43 224-5 62 32 126 33 196-8v128H0z" fill="#fff" opacity=".55"/>
  <ellipse cx="212" cy="422" rx="104" ry="25" fill="#356b75" opacity=".2" filter="url(#shadow2)"/>
  <rect x="149" y="84" width="126" height="53" rx="20" fill="#275d68"/>
  <rect x="163" y="66" width="98" height="31" rx="13" fill="#d9f2f3"/>
  <rect x="137" y="117" width="150" height="292" rx="63" fill="url(#bottle)"/>
  <path d="M162 151c26-14 70-18 100-3" fill="none" stroke="#e7ffff" stroke-width="8" stroke-linecap="round" opacity=".7"/>
  <path d="M240 90c42-2 64 18 64 54 0 29-15 47-44 52" fill="none" stroke="#275d68" stroke-width="14" stroke-linecap="round"/>
  <rect x="157" y="202" width="110" height="87" rx="21" fill="#fff" opacity=".86"/>
  <text x="212" y="238" text-anchor="middle" fill="#30798a" font-family="Arial,sans-serif" font-size="19" font-weight="800">MOVE</text>
  <text x="212" y="264" text-anchor="middle" fill="#76aeb7" font-family="Arial,sans-serif" font-size="13" letter-spacing="3">HYDRATE</text>
  <text x="210" y="455" text-anchor="middle" fill="#356b75" font-family="Arial,sans-serif" font-size="20" font-weight="700">SPORT BOTTLE</text>
</svg>
