<svg xmlns="http://www.w3.org/2000/svg" viewBox="0 0 360 300">
  <defs><linearGradient id="b" x1="0" y1="0" x2="1" y2="1"><stop stop-color="#f2eee6"/><stop offset="1" stop-color="#dfd6c7"/></linearGradient><filter id="s"><feDropShadow dx="0" dy="12" stdDeviation="10" flood-opacity=".16"/></filter></defs>
  <rect width="360" height="300" rx="24" fill="url(#b)"/><path d="M0 242c85-33 172-34 360-5v63H0z" fill="#d2c8b8" opacity=".6"/>
  <g filter="url(#s)" transform="rotate(-5 180 160)"><path d="M49 171c44-6 65-35 95-75 31 27 50 50 93 63l69 21c19 6 21 32 2 41-12 6-36 8-66 8H79c-33 0-49-12-45-32 2-12 7-20 15-26z" fill="#fffdf8"/><path d="M39 202h280c0 23-22 32-59 32H79c-28 0-41-9-40-32z" fill="#ece7dc"/><path d="M156 112l-25 55m50-39-29 54m57-37-27 47" stroke="#c5bcae" stroke-width="7" stroke-linecap="round"/><path d="M97 175c24 4 49 14 73 30" stroke="#ff6a2a" stroke-width="7" stroke-linecap="round"/></g>
  <text x="20" y="34" font-family="sans-serif" font-size="13" font-weight="700" fill="#83786a">CLEAN / EVERYDAY</text>
</svg>
